<svg id="visual" viewBox="0 0 900 600" width="900" height="600" xmlns="http://www.w3.org/2000/svg" xmlns:xlink="http://www.w3.org/1999/xlink" version="1.1"><rect x="0" y="0" width="900" height="600" fill="#a099c0"></rect><path d="M0 386L21.5 380.2C43 374.3 86 362.7 128.8 366.8C171.7 371 214.3 391 257.2 393.7C300 396.3 343 381.7 385.8 377.7C428.7 373.7 471.3 380.3 514.2 378C557 375.7 600 364.3 642.8 371.7C685.7 379 728.3 405 771.2 419.3C814 433.7 857 436.3 878.5 437.7L900 439L900 601L878.5 601C857 601 814 601 771.2 601C728.3 601 685.7 601 642.8 601C600 601 557 601 514.2 601C471.3 601 428.7 601 385.8 601C343 601 300 601 257.2 601C214.3 601 171.7 601 128.8 601C86 601 43 601 21.5 601L0 601Z" fill="#7268af"></path><path d="M0 406L21.5 409.2C43 412.3 86 418.7 128.8 417C171.7 415.3 214.3 405.7 257.2 404.2C300 402.7 343 409.3 385.8 414.7C428.7 420 471.3 424 514.2 425.3C557 426.7 600 425.3 642.8 432.2C685.7 439 728.3 454 771.2 454.3C814 454.7 857 440.3 878.5 433.2L900 426L900 601L878.5 601C857 601 814 601 771.2 601C728.3 601 685.7 601 642.8 601C600 601 557 601 514.2 601C471.3 601 428.7 601 385.8 601C343 601 300 601 257.2 601C214.3 601 171.7 601 128.8 601C86 601 43 601 21.5 601L0 601Z" fill="#6d5ea4"></path><path d="M0 455L21.5 456.2C43 457.3 86 459.7 128.8 458.7C171.7 457.7 214.3 453.3 257.2 456.7C300 460 343 471 385.8 475.8C428.7 480.7 471.3 479.3 514.2 481.8C557 484.3 600 490.7 642.8 483.8C685.7 477 728.3 457 771.2 451.7C814 446.3 857 455.7 878.5 460.3L900 465L900 601L878.5 601C857 601 814 601 771.2 601C728.3 601 685.7 601 642.8 601C600 601 557 601 514.2 601C471.3 601 428.7 601 385.8 601C343 601 300 601 257.2 601C214.3 601 171.7 601 128.8 601C86 601 43 601 21.5 601L0 601Z" fill="#685599"></path><path d="M0 538L21.5 532.8C43 527.7 86 517.3 128.8 516C171.7 514.7 214.3 522.3 257.2 519.5C300 516.7 343 503.3 385.8 500.2C428.7 497 471.3 504 514.2 510.8C557 517.7 600 524.3 642.8 525.5C685.7 526.7 728.3 522.3 771.2 515.7C814 509 857 500 878.5 495.5L900 491L900 601L878.5 601C857 601 814 601 771.2 601C728.3 601 685.7 601 642.8 601C600 601 557 601 514.2 601C471.3 601 428.7 601 385.8 601C343 601 300 601 257.2 601C214.3 601 171.7 601 128.8 601C86 601 43 601 21.5 601L0 601Z" fill="#634b8e"></path><path d="M0 557L21.5 558C43 559 86 561 128.8 557.2C171.7 553.3 214.3 543.7 257.2 542.3C300 541 343 548 385.8 550.8C428.7 553.7 471.3 552.3 514.2 551.5C557 550.7 600 550.3 642.8 547.5C685.7 544.7 728.3 539.3 771.2 535.8C814 532.3 857 530.7 878.5 529.8L900 529L900 601L878.5 601C857 601 814 601 771.2 601C728.3 601 685.7 601 642.8 601C600 601 557 601 514.2 601C471.3 601 428.7 601 385.8 601C343 601 300 601 257.2 601C214.3 601 171.7 601 128.8 601C86 601 43 601 21.5 601L0 601Z" fill="#5d4284"></path></svg>